<svg width="22" height="22" viewBox="0 0 22 22" xmlns="http://www.w3.org/2000/svg">
    <g transform="translate(3.667 2.292)" stroke="#A08241" stroke-width="1.5" fill="none" fill-rule="evenodd" stroke-linecap="round" stroke-linejoin="round">
        <circle cx="6.947" cy="4.38" r="4.38"/>
        <path d="M0 14.851a2.03 2.03 0 0 1 .201-.89c.42-.838 1.603-1.283 2.585-1.484a15.388 15.388 0 0 1 2.148-.302 22.965 22.965 0 0 1 4.019 0c.722.05 1.44.151 2.148.302.981.201 2.164.604 2.584 1.485a2.08 2.08 0 0 1 0 1.787c-.42.881-1.603 1.284-2.584 1.477-.707.157-1.425.26-2.148.31-1.089.092-2.182.11-3.273.05-.251 0-.495 0-.746-.05a14.138 14.138 0 0 1-2.14-.31c-.99-.193-2.165-.596-2.593-1.477A2.09 2.09 0 0 1 0 14.851z"/>
    </g>
</svg>
