<svg width="114" height="26" viewBox="0 0 114 26" xmlns="http://www.w3.org/2000/svg">
    <path d="M0 25.65h25.65V0H0v25.65zm20.713-15.293h-5.42v-5.42h5.42v5.42zM4.936 4.937h5.423v10.356h10.354v5.42H4.936V4.937zM42.353 0a12.825 12.825 0 1 0 12.825 12.825A12.84 12.84 0 0 0 42.353 0zm0 20.713a7.888 7.888 0 1 1 7.888-7.888 7.9 7.9 0 0 1-7.888 7.888zM101.072 0a12.826 12.826 0 1 0 12.824 12.825A12.84 12.84 0 0 0 101.072 0zm0 20.713a7.89 7.89 0 0 1-1.54-15.624 7.886 7.886 0 0 1 7.113 13.31 7.898 7.898 0 0 1-5.573 2.314zM71.712 0a12.825 12.825 0 1 0 12.825 12.825A12.84 12.84 0 0 0 71.712 0zm0 20.713A7.888 7.888 0 1 1 79.2 10.357h-7.488v4.936H79.2a7.9 7.9 0 0 1-7.488 5.42z" fill="#394149" fill-rule="nonzero" opacity=".621"/>
</svg>
