<svg width="95" height="45" viewBox="0 0 95 45" xmlns="http://www.w3.org/2000/svg">
    <g fill="#394149" fill-rule="nonzero" opacity=".621">
        <path d="M0 27.017h2.833v13.89H0zM4.476 36.148a5.043 5.043 0 1 1 5.043 5.033 4.984 4.984 0 0 1-5.043-5.033zm7.233 0a2.19 2.19 0 1 0-2.19 2.247 2.133 2.133 0 0 0 2.19-2.247z"/>
        <path d="M25.95 31.389v9.046c0 3.201-2.503 4.552-5.034 4.552a4.863 4.863 0 0 1-4.504-2.304l2.436-1.407a2.172 2.172 0 0 0 2.125 1.199 1.887 1.887 0 0 0 2.19-2.04v-.878a3.36 3.36 0 0 1-2.775 1.237 4.835 4.835 0 0 1 0-9.67 3.39 3.39 0 0 1 2.776 1.237v-.944l2.785-.028zm-2.786 4.57a2.304 2.304 0 1 0-2.304 2.21 2.153 2.153 0 0 0 2.304-2.21zM27.583 36.148a5.043 5.043 0 1 1 5.043 5.033 4.985 4.985 0 0 1-5.043-5.033zm7.234 0a2.191 2.191 0 1 0-2.191 2.247 2.134 2.134 0 0 0 2.172-2.247h.019zM38.98 28.839a1.719 1.719 0 1 1 1.72 1.719 1.728 1.728 0 0 1-1.72-1.719zm.294 2.55h2.833v9.518h-2.833V31.39zM54.458 36.148a4.78 4.78 0 0 1-4.542 5.033 3.617 3.617 0 0 1-2.833-1.161v4.721H44.25V31.39h2.833v.897a3.617 3.617 0 0 1 2.833-1.162 4.777 4.777 0 0 1 4.542 5.024zm-2.833 0a2.266 2.266 0 1 0-2.323 2.323 2.172 2.172 0 0 0 2.304-2.323h.019zM63.278 38.055c0 2.191-1.889 3.126-3.966 3.126a4.174 4.174 0 0 1-4.09-2.266l2.475-1.407a1.567 1.567 0 0 0 1.615 1.123c.69 0 1.029-.217 1.029-.594 0-1.049-4.721-.491-4.721-3.778 0-2.077 1.756-3.125 3.777-3.125a4.183 4.183 0 0 1 3.72 2.04l-2.483 1.303a1.407 1.407 0 0 0-1.284-.841c-.491 0-.794.189-.794.538.038 1.086 4.722.36 4.722 3.881zM73.703 31.389v9.518H70.87v-.887a3.257 3.257 0 0 1-2.72 1.161c-1.888 0-3.56-1.37-3.56-3.947v-5.845h2.833v5.43a1.568 1.568 0 0 0 1.71 1.728c1.038 0 1.765-.605 1.765-1.955v-5.203h2.805zM90.077 35.071v5.836h-2.833v-5.59c0-.944-.463-1.568-1.37-1.568-.906 0-1.491.67-1.491 1.795v5.363H81.55v-5.59c0-.944-.453-1.568-1.37-1.568-.915 0-1.482.67-1.482 1.795v5.363h-2.833V31.39h2.833v.878a2.926 2.926 0 0 1 2.55-1.143 2.833 2.833 0 0 1 2.493 1.256 3.135 3.135 0 0 1 2.757-1.256c2.153 0 3.58 1.568 3.58 3.947zM92.495 31.332a2.115 2.115 0 1 0 0-4.23 2.115 2.115 0 0 0 0 4.23zM32.06 19.812c5.47 0 9.905-4.435 9.905-9.906C41.965 4.435 37.53 0 32.059 0c-5.47 0-9.906 4.435-9.906 9.906 0 5.47 4.435 9.906 9.906 9.906zM54.203 19.812c5.47 0 9.906-4.435 9.906-9.906C64.109 4.435 59.674 0 54.203 0c-5.47 0-9.906 4.435-9.906 9.906 0 5.47 4.435 9.906 9.906 9.906zM19.82 0H.02v19.802H19.82z"/>
    </g>
</svg>
