<svg width="33" height="33" viewBox="0 0 33 33" xmlns="http://www.w3.org/2000/svg">
    <g fill="none" fill-rule="evenodd">
        <circle fill="#E5E8ED" cx="16.5" cy="16.5" r="16.5"/>
        <path d="M22.333 10H11.667A2.675 2.675 0 0 0 9 12.667v6.666C9 20.8 10.2 22 11.667 22h10.666C23.8 22 25 20.8 25 19.333v-6.666C25 11.2 23.8 10 22.333 10zm1.067 3.867L18.133 17.4c-.333.2-.733.333-1.133.333s-.8-.133-1.133-.333L10.6 13.867c-.267-.2-.333-.6-.133-.934.2-.266.6-.333.933-.133l5.267 3.533c.2.134.533.134.733 0l5.267-3.533c.333-.2.733-.133.933.2.133.267.067.667-.2.867z" fill="#000" fill-rule="nonzero"/>
    </g>
</svg>
