<svg width="33" height="33" viewBox="0 0 33 33" xmlns="http://www.w3.org/2000/svg">
    <g fill="none" fill-rule="evenodd">
        <circle fill="#FDF7F6" cx="16.5" cy="16.5" r="16.5"/>
        <path d="M25.245 11.556a6.53 6.53 0 0 1-1.885.517 3.288 3.288 0 0 0 1.443-1.816 6.57 6.57 0 0 1-2.084.797 3.282 3.282 0 0 0-5.592 2.993 9.318 9.318 0 0 1-6.765-3.43A3.28 3.28 0 0 0 11.378 15a3.273 3.273 0 0 1-1.487-.41v.041a3.285 3.285 0 0 0 2.633 3.218 3.3 3.3 0 0 1-1.483.056 3.286 3.286 0 0 0 3.066 2.28 6.584 6.584 0 0 1-4.859 1.358 9.287 9.287 0 0 0 5.031 1.475c6.037 0 9.338-5 9.338-9.338 0-.142-.003-.284-.01-.425a6.647 6.647 0 0 0 1.638-1.698z" fill="#000" fill-rule="nonzero"/>
    </g>
</svg>
