<svg width="18" height="16" viewBox="0 0 18 16" xmlns="http://www.w3.org/2000/svg">
    <g stroke="#FFF" stroke-width="1.5" fill="none" fill-rule="evenodd" stroke-linecap="round" stroke-linejoin="round">
        <path d="m13.17 5.173-3.377 2.72a1.76 1.76 0 0 1-2.173 0l-3.406-2.72"/>
        <path d="M4.953.77h7.464c1.076.013 2.1.468 2.834 1.26a3.972 3.972 0 0 1 1.05 2.932v5.168a3.972 3.972 0 0 1-1.05 2.932 3.924 3.924 0 0 1-2.834 1.26H4.953c-2.312 0-3.87-1.881-3.87-4.192V4.962c0-2.31 1.558-4.191 3.87-4.191z"/>
    </g>
</svg>
